<svg width="714" height="274" viewBox="0 0 714 274" fill="none" xmlns="http://www.w3.org/2000/svg">
<g filter="url(#filter0_f_23_569)">
<path d="M380.887 60.7525C380.469 61.3807 378.591 59.9151 375.46 58.8682C372.537 57.8214 366.693 56.1464 360.639 54.6808C345.819 50.9121 311.795 43.5842 261.28 43.5842C219.323 43.5842 188.848 59.287 180.289 80.4333C179.872 81.6896 179.246 82.9458 179.037 83.7833C200.537 73.3148 223.916 67.8711 242.076 69.1273C257.94 70.1742 269.629 81.4802 264.62 99.2767C258.149 122.098 233.935 153.085 194.066 184.49C167.139 205.846 140.003 219.246 124.139 225.527C125.6 225.736 129.775 225.736 131.653 225.736C161.92 224.48 188.639 208.568 215.357 187.84C236.44 171.509 257.105 149.316 280.693 123.354C304.697 96.9736 330.581 72.4773 353.125 62.4275C357.508 60.3338 361.266 59.287 365.232 59.287C366.693 59.4963 368.154 59.7057 367.945 60.7525C367.736 61.3807 366.693 61.1713 365.232 61.3807C360.848 61.7994 358.134 63.265 354.168 65.3587C333.921 76.2459 312.421 105.767 295.304 127.123C271.717 156.016 250.217 176.325 225.377 194.331C193.857 216.943 160.251 228.249 132.488 228.667C128.314 228.667 122.469 228.458 118.503 228.039C95.3329 236.414 82.1824 238.508 70.0756 238.927C46.6969 239.973 31.6677 229.714 35.6337 215.268C36.6774 210.662 41.4784 206.684 47.3231 204.799C48.993 204.171 51.4978 203.752 51.7066 204.59C51.9153 205.009 50.6629 205.637 49.4105 206.684C47.5318 208.359 45.027 211.499 44.192 214.64C40.6435 228.458 50.6629 236.833 70.9105 236.205C81.7649 235.786 96.7941 232.227 112.032 226.155C98.6727 222.386 87.8183 211.708 88.4445 192.656C89.697 159.575 113.911 128.379 144.386 104.72C153.571 97.8111 164.634 91.3206 175.071 85.877C175.488 84.202 175.697 82.3177 176.532 80.8521C188.221 51.5403 222.037 35 261.489 35C307.202 35 347.28 47.3528 360.639 51.3309C365.858 53.0058 372.955 55.5183 376.921 57.1932C379.843 58.2401 381.513 59.7057 380.887 60.7525ZM261.28 98.6485C266.081 83.3645 257.105 73.1054 242.076 72.0585C222.872 70.8023 198.032 81.8989 177.576 94.0424C176.115 107.861 182.377 120.004 196.571 123.145C200.537 123.982 203.877 123.354 203.668 124.401C203.251 126.076 197.823 126.285 193.649 125.239C179.246 121.679 173.61 108.908 174.027 96.1361C165.886 101.161 158.581 106.395 152.736 111.001C119.755 136.754 92.828 167.113 91.9931 193.493C91.3669 211.918 102.639 221.339 116.207 224.061C141.673 212.546 167.348 195.587 187.178 180.094C221.62 153.294 256.061 116.026 261.28 98.6485Z" fill="#A8D0FF"/>
<path d="M372.886 121.261C354.935 137.801 338.027 155.807 330.721 164.81C324.042 172.766 319.449 178.837 322.58 180.303C325.712 181.769 336.775 174.022 341.784 170.044C348.464 164.81 355.979 158.11 362.032 152.666C362.658 152.038 363.702 151.2 364.746 152.247C365.581 153.085 364.954 153.922 364.119 154.76C357.648 160.622 348.464 168.369 344.08 171.928C335.94 178.209 327.173 184.49 320.702 184.281C310.682 184.072 309.639 175.906 315.692 165.438C312.978 168.159 310.056 170.463 308.386 171.928C301.08 177.581 291.687 184.7 284.173 184.49C276.449 184.281 274.571 178.628 276.449 172.347C278.119 166.066 283.129 158.738 290.852 150.991C298.993 142.407 313.813 130.473 322.372 125.448C325.503 123.564 334.061 122.517 339.071 122.517C320.493 137.801 302.124 155.807 294.818 164.81C288.139 172.766 284.381 178.628 287.304 179.884C290.643 181.559 300.454 174.859 306.925 169.625C313.605 164.391 323.624 154.55 326.755 150.991C335.105 142.407 349.925 128.379 358.275 123.564C361.197 122.098 368.92 120.842 372.886 121.261Z" fill="#A8D0FF"/>
<path d="M423.558 106.186C426.271 107.442 423.14 112.258 412.286 118.329C407.067 121.261 399.553 125.239 396.63 128.379C394.334 130.892 393.708 135.498 393.708 139.057C393.708 149.107 394.752 164.6 376.174 176.953C389.742 170.672 402.684 161.041 412.286 152.666C413.121 152.038 413.747 151.829 414.582 152.666C415.208 153.504 414.582 154.341 413.956 154.969C401.64 166.275 386.402 175.278 377.426 179.256C370.329 182.397 358.223 184.909 351.334 184.49C345.907 184.072 341.523 181.769 341.732 176.116C341.941 172.766 344.446 167.95 349.038 163.553C350.708 161.878 354.883 158.11 357.388 156.016C361.98 152.038 365.528 150.154 368.033 150.363C376.383 143.244 387.655 133.404 392.873 127.332C397.883 121.261 400.805 117.073 405.815 112.676C412.077 107.023 418.965 104.092 423.558 106.186ZM391.829 131.938C386.193 138.22 377.635 145.757 369.494 152.457C368.868 154.76 366.155 158.11 360.936 161.46C358.431 163.344 352.587 165.856 349.664 168.159C346.324 170.672 344.863 173.184 344.654 175.487C344.446 178.837 346.951 180.512 349.873 180.512C356.761 180.512 365.111 175.278 373.252 166.066C380.349 157.691 388.907 143.454 391.829 131.938Z" fill="#A8D0FF"/>
<path d="M438.009 126.704C453.247 111.42 469.946 96.7642 487.272 83.9926C517.539 62.0088 555.112 42.7467 587.049 42.5373C627.544 42.1186 640.903 62.6369 637.563 81.6896C635.893 91.3206 628.796 96.9736 625.039 98.8579C623.369 99.6954 622.952 99.486 622.743 98.8579C622.534 98.0204 622.325 98.4392 623.995 96.9736C626.918 94.4611 630.466 89.2269 631.51 83.3645C635.267 63.265 623.995 45.2591 586.631 45.6779C556.573 45.8873 523.801 67.6618 494.578 90.6925C481.636 100.952 463.267 117.282 453.874 126.285C456.796 126.285 465.354 126.076 469.946 126.495C470.573 126.495 471.616 126.914 470.99 128.17C470.573 128.798 469.529 129.007 468.694 129.007C465.145 129.007 455.752 129.007 450.742 129.426C446.985 133.195 443.645 136.545 439.471 140.941C417.971 163.344 406.281 176.744 411.917 180.094C415.466 182.187 424.65 176.953 431.539 171.719C436.548 167.95 447.194 159.157 453.874 153.085C454.917 152.457 456.17 151.41 456.796 152.247C457.631 153.504 456.587 154.55 455.543 155.597C448.864 161.46 440.306 169.206 432.165 174.859C422.98 181.559 412.752 186.793 405.446 184.072C398.767 181.769 398.975 173.394 403.776 165.438C408.369 158.11 418.806 146.176 435.296 129.426C431.747 129.635 426.529 130.054 422.772 130.263C421.519 130.263 420.684 130.263 420.893 129.217C421.102 128.379 421.728 128.17 422.98 127.751C425.485 127.332 433 126.914 438.009 126.704Z" fill="#A8D0FF"/>
<path d="M492.101 182.397V180.582L495.832 180.015C500.581 179.335 501.485 177.747 501.485 170.942V117.527C501.485 110.722 500.581 109.134 495.832 108.454L492.101 107.887V106.072H543.772V120.929H541.511L540.38 116.506C539.363 112.423 537.78 110.609 531.448 110.609H510.079V141.569H531.335C535.971 141.569 538.119 140.549 539.137 137.033L539.928 134.311H541.963V154.271H539.928L539.25 151.096C538.458 147.24 536.762 146.219 531.561 146.219H510.079V171.283C510.079 176.953 510.983 179.561 515.958 180.242L519.011 180.582V182.397H492.101Z" fill="#A8D0FF"/>
<path d="M564.84 182.397H546.297V180.809L548.219 180.355C551.272 179.561 551.498 177.407 551.498 174.231V140.322C551.498 138.848 551.385 137.827 549.463 136.579L547.201 134.992V133.744L558.847 127.393L559.978 128.074C559.865 131.022 559.413 143.384 559.413 147.013V174.231C559.413 177.407 559.865 179.561 562.918 180.355L564.84 180.809V182.397ZM560.996 115.372C560.996 118.888 558.282 120.702 555.455 120.702C552.742 120.702 550.028 119.001 550.028 115.372C550.028 111.63 552.742 109.815 555.455 109.815C558.282 109.815 560.996 111.743 560.996 115.372Z" fill="#A8D0FF"/>
<path d="M573.471 116.052C573.471 114.011 573.132 113.217 571.436 112.083L569.287 110.609V109.361L580.82 103.124L581.951 103.804C581.838 106.753 581.386 119.114 581.386 122.744V167.54C581.386 177.86 581.725 179.561 584.891 180.355L586.813 180.809V182.397H568.27V180.809L570.192 180.355C573.358 179.561 573.471 176.726 573.471 166.406V116.052Z" fill="#A8D0FF"/>
<path d="M595.444 174.231V140.209C595.444 138.734 595.331 137.714 593.182 136.466L590.921 135.105V133.858L602.228 127.507L603.358 128.187V137.033C610.708 130.569 617.153 128.074 621.901 128.074C627.894 128.074 633.208 133.064 635.356 136.92C641.575 132.156 648.02 128.074 655.143 128.074C663.623 128.074 670.068 135.672 670.068 144.064V174.458C670.068 178.541 671.311 179.108 674.477 179.675L679 180.469V182.397H656.726V180.809L658.535 180.128C661.362 178.994 662.153 178.314 662.153 174.231V149.054C662.153 146.559 661.927 144.291 661.362 142.363C659.892 137.6 656.726 134.765 650.055 134.765C645.645 134.765 640.67 137.033 636.826 139.188V174.458C636.826 178.541 638.07 179.108 641.236 179.675L645.758 180.469V182.397H623.484V180.809L625.293 180.128C628.12 178.994 628.911 177.86 628.911 174.231V149.054C628.911 142.93 627.668 140.549 625.52 138.507C623.258 136.239 619.753 134.765 616.587 134.765C611.047 134.765 604.15 139.188 603.358 139.868V174.458C603.358 178.541 604.715 179.108 607.881 179.675L612.517 180.469V182.397H590.243V180.809L592.165 180.242C595.105 179.335 595.444 177.747 595.444 174.231Z" fill="#A8D0FF"/>
<path d="M620.64 82.0734L623.174 98.8427L638.035 101.702L623.174 104.561L620.64 121.33L618.106 104.561L603.245 101.702L618.106 98.8427L620.64 82.0734Z" fill="#A8D0FF"/>
<path d="M207.512 103.883L210.046 120.652L224.907 123.511L210.046 126.37L207.512 143.14L204.979 126.37L190.117 123.511L204.979 120.652L207.512 103.883Z" fill="#A8D0FF"/>
</g>
<path d="M380.887 60.7525C380.469 61.3807 378.591 59.9151 375.46 58.8682C372.537 57.8214 366.693 56.1464 360.639 54.6808C345.819 50.9121 311.795 43.5842 261.28 43.5842C219.323 43.5842 188.848 59.287 180.289 80.4333C179.872 81.6896 179.246 82.9458 179.037 83.7833C200.537 73.3148 223.916 67.8711 242.076 69.1273C257.94 70.1742 269.629 81.4802 264.62 99.2767C258.149 122.098 233.935 153.085 194.066 184.49C167.139 205.846 140.003 219.246 124.139 225.527C125.6 225.736 129.775 225.736 131.653 225.736C161.92 224.48 188.639 208.568 215.357 187.84C236.44 171.509 257.105 149.316 280.693 123.354C304.697 96.9736 330.581 72.4773 353.125 62.4275C357.508 60.3338 361.266 59.287 365.232 59.287C366.693 59.4963 368.154 59.7057 367.945 60.7525C367.736 61.3807 366.693 61.1713 365.232 61.3807C360.848 61.7994 358.134 63.265 354.168 65.3587C333.921 76.2459 312.421 105.767 295.304 127.123C271.717 156.016 250.217 176.325 225.377 194.331C193.857 216.943 160.251 228.249 132.488 228.667C128.314 228.667 122.469 228.458 118.503 228.039C95.3329 236.414 82.1824 238.508 70.0756 238.927C46.6969 239.973 31.6677 229.714 35.6337 215.268C36.6774 210.662 41.4784 206.684 47.3231 204.799C48.993 204.171 51.4978 203.752 51.7066 204.59C51.9153 205.009 50.6629 205.637 49.4105 206.684C47.5318 208.359 45.027 211.499 44.192 214.64C40.6435 228.458 50.6629 236.833 70.9105 236.205C81.7649 235.786 96.7941 232.227 112.032 226.155C98.6727 222.386 87.8183 211.708 88.4445 192.656C89.697 159.575 113.911 128.379 144.386 104.72C153.571 97.8111 164.634 91.3206 175.071 85.877C175.488 84.202 175.697 82.3177 176.532 80.8521C188.221 51.5403 222.037 35 261.489 35C307.202 35 347.28 47.3528 360.639 51.3309C365.858 53.0058 372.955 55.5183 376.921 57.1932C379.843 58.2401 381.513 59.7057 380.887 60.7525ZM261.28 98.6485C266.081 83.3645 257.105 73.1054 242.076 72.0585C222.872 70.8023 198.032 81.8989 177.576 94.0424C176.115 107.861 182.377 120.004 196.571 123.145C200.537 123.982 203.877 123.354 203.668 124.401C203.251 126.076 197.823 126.285 193.649 125.239C179.246 121.679 173.61 108.908 174.027 96.1361C165.886 101.161 158.581 106.395 152.736 111.001C119.755 136.754 92.828 167.113 91.9931 193.493C91.3669 211.918 102.639 221.339 116.207 224.061C141.673 212.546 167.348 195.587 187.178 180.094C221.62 153.294 256.061 116.026 261.28 98.6485Z" fill="white"/>
<path d="M372.886 121.261C354.935 137.801 338.027 155.807 330.721 164.81C324.042 172.766 319.449 178.837 322.58 180.303C325.712 181.769 336.775 174.022 341.784 170.044C348.464 164.81 355.979 158.11 362.032 152.666C362.658 152.038 363.702 151.2 364.746 152.247C365.581 153.085 364.954 153.922 364.119 154.76C357.648 160.622 348.464 168.369 344.08 171.928C335.94 178.209 327.173 184.49 320.702 184.281C310.682 184.072 309.639 175.906 315.692 165.438C312.978 168.159 310.056 170.463 308.386 171.928C301.08 177.581 291.687 184.7 284.173 184.49C276.449 184.281 274.571 178.628 276.449 172.347C278.119 166.066 283.129 158.738 290.852 150.991C298.993 142.407 313.813 130.473 322.372 125.448C325.503 123.564 334.061 122.517 339.071 122.517C320.493 137.801 302.124 155.807 294.818 164.81C288.139 172.766 284.381 178.628 287.304 179.884C290.643 181.559 300.454 174.859 306.925 169.625C313.605 164.391 323.624 154.55 326.755 150.991C335.105 142.407 349.925 128.379 358.275 123.564C361.197 122.098 368.92 120.842 372.886 121.261Z" fill="white"/>
<path d="M423.558 106.186C426.271 107.442 423.14 112.258 412.286 118.329C407.067 121.261 399.553 125.239 396.63 128.379C394.334 130.892 393.708 135.498 393.708 139.057C393.708 149.107 394.752 164.6 376.174 176.953C389.742 170.672 402.684 161.041 412.286 152.666C413.121 152.038 413.747 151.829 414.582 152.666C415.208 153.504 414.582 154.341 413.956 154.969C401.64 166.275 386.402 175.278 377.426 179.256C370.329 182.397 358.223 184.909 351.334 184.49C345.907 184.072 341.523 181.769 341.732 176.116C341.941 172.766 344.446 167.95 349.038 163.553C350.708 161.878 354.883 158.11 357.388 156.016C361.98 152.038 365.528 150.154 368.033 150.363C376.383 143.244 387.655 133.404 392.873 127.332C397.883 121.261 400.805 117.073 405.815 112.676C412.077 107.023 418.965 104.092 423.558 106.186ZM391.829 131.938C386.193 138.22 377.635 145.757 369.494 152.457C368.868 154.76 366.155 158.11 360.936 161.46C358.431 163.344 352.587 165.856 349.664 168.159C346.324 170.672 344.863 173.184 344.654 175.487C344.446 178.837 346.951 180.512 349.873 180.512C356.761 180.512 365.111 175.278 373.252 166.066C380.349 157.691 388.907 143.454 391.829 131.938Z" fill="white"/>
<path d="M438.009 126.704C453.247 111.42 469.946 96.7642 487.272 83.9926C517.539 62.0088 555.112 42.7467 587.049 42.5373C627.544 42.1186 640.903 62.6369 637.563 81.6896C635.893 91.3206 628.796 96.9736 625.039 98.8579C623.369 99.6954 622.952 99.486 622.743 98.8579C622.534 98.0204 622.325 98.4392 623.995 96.9736C626.918 94.4611 630.466 89.2269 631.51 83.3645C635.267 63.265 623.995 45.2591 586.631 45.6779C556.573 45.8873 523.801 67.6618 494.578 90.6925C481.636 100.952 463.267 117.282 453.874 126.285C456.796 126.285 465.354 126.076 469.946 126.495C470.573 126.495 471.616 126.914 470.99 128.17C470.573 128.798 469.529 129.007 468.694 129.007C465.145 129.007 455.752 129.007 450.742 129.426C446.985 133.195 443.645 136.545 439.471 140.941C417.971 163.344 406.281 176.744 411.917 180.094C415.466 182.187 424.65 176.953 431.539 171.719C436.548 167.95 447.194 159.157 453.874 153.085C454.917 152.457 456.17 151.41 456.796 152.247C457.631 153.504 456.587 154.55 455.543 155.597C448.864 161.46 440.306 169.206 432.165 174.859C422.98 181.559 412.752 186.793 405.446 184.072C398.767 181.769 398.975 173.394 403.776 165.438C408.369 158.11 418.806 146.176 435.296 129.426C431.747 129.635 426.529 130.054 422.772 130.263C421.519 130.263 420.684 130.263 420.893 129.217C421.102 128.379 421.728 128.17 422.98 127.751C425.485 127.332 433 126.914 438.009 126.704Z" fill="white"/>
<path d="M492.101 182.397V180.582L495.832 180.015C500.581 179.335 501.485 177.747 501.485 170.942V117.527C501.485 110.722 500.581 109.134 495.832 108.454L492.101 107.887V106.072H543.772V120.929H541.511L540.38 116.506C539.363 112.423 537.78 110.609 531.448 110.609H510.079V141.569H531.335C535.971 141.569 538.119 140.549 539.137 137.033L539.928 134.311H541.963V154.271H539.928L539.25 151.096C538.458 147.24 536.762 146.219 531.561 146.219H510.079V171.283C510.079 176.953 510.983 179.561 515.958 180.242L519.011 180.582V182.397H492.101Z" fill="white"/>
<path d="M564.84 182.397H546.297V180.809L548.219 180.355C551.272 179.561 551.498 177.407 551.498 174.231V140.322C551.498 138.848 551.385 137.827 549.463 136.579L547.201 134.992V133.744L558.847 127.393L559.978 128.074C559.865 131.022 559.413 143.384 559.413 147.013V174.231C559.413 177.407 559.865 179.561 562.918 180.355L564.84 180.809V182.397ZM560.996 115.372C560.996 118.888 558.282 120.702 555.455 120.702C552.742 120.702 550.028 119.001 550.028 115.372C550.028 111.63 552.742 109.815 555.455 109.815C558.282 109.815 560.996 111.743 560.996 115.372Z" fill="white"/>
<path d="M573.471 116.052C573.471 114.011 573.132 113.217 571.436 112.083L569.287 110.609V109.361L580.82 103.124L581.951 103.804C581.838 106.753 581.386 119.114 581.386 122.744V167.54C581.386 177.86 581.725 179.561 584.891 180.355L586.813 180.809V182.397H568.27V180.809L570.192 180.355C573.358 179.561 573.471 176.726 573.471 166.406V116.052Z" fill="white"/>
<path d="M595.444 174.231V140.209C595.444 138.734 595.331 137.714 593.182 136.466L590.921 135.105V133.858L602.228 127.507L603.358 128.187V137.033C610.708 130.569 617.153 128.074 621.901 128.074C627.894 128.074 633.208 133.064 635.356 136.92C641.575 132.156 648.02 128.074 655.143 128.074C663.623 128.074 670.068 135.672 670.068 144.064V174.458C670.068 178.541 671.311 179.108 674.477 179.675L679 180.469V182.397H656.726V180.809L658.535 180.128C661.362 178.994 662.153 178.314 662.153 174.231V149.054C662.153 146.559 661.927 144.291 661.362 142.363C659.892 137.6 656.726 134.765 650.055 134.765C645.645 134.765 640.67 137.033 636.826 139.188V174.458C636.826 178.541 638.07 179.108 641.236 179.675L645.758 180.469V182.397H623.484V180.809L625.293 180.128C628.12 178.994 628.911 177.86 628.911 174.231V149.054C628.911 142.93 627.668 140.549 625.52 138.507C623.258 136.239 619.753 134.765 616.587 134.765C611.047 134.765 604.15 139.188 603.358 139.868V174.458C603.358 178.541 604.715 179.108 607.881 179.675L612.517 180.469V182.397H590.243V180.809L592.165 180.242C595.105 179.335 595.444 177.747 595.444 174.231Z" fill="white"/>
<path d="M620.64 82.0734L623.174 98.8427L638.035 101.702L623.174 104.561L620.64 121.33L618.106 104.561L603.245 101.702L618.106 98.8427L620.64 82.0734Z" fill="white"/>
<path d="M207.512 103.883L210.046 120.652L224.907 123.511L210.046 126.37L207.512 143.14L204.979 126.37L190.117 123.511L204.979 120.652L207.512 103.883Z" fill="white"/>
<defs>
<filter id="filter0_f_23_569" x="0.700001" y="0.700001" width="712.6" height="272.6" filterUnits="userSpaceOnUse" color-interpolation-filters="sRGB">
<feFlood flood-opacity="0" result="BackgroundImageFix"/>
<feBlend mode="normal" in="SourceGraphic" in2="BackgroundImageFix" result="shape"/>
<feGaussianBlur stdDeviation="17.15" result="effect1_foregroundBlur_23_569"/>
</filter>
</defs>
</svg>
