<svg width="315" height="104" viewBox="0 0 315 104" fill="none" xmlns="http://www.w3.org/2000/svg">
<g filter="url(#filter0_d_63_10)">
<path d="M162.736 18.224C162.544 18.512 161.68 17.84 160.24 17.36C158.896 16.88 156.208 16.112 153.424 15.44C146.608 13.712 130.96 10.352 107.728 10.352C88.432 10.352 74.416 17.552 70.48 27.248C70.288 27.824 70 28.4 69.904 28.784C79.792 23.984 90.544 21.488 98.896 22.064C106.192 22.544 111.568 27.728 109.264 35.888C106.288 46.352 95.152 60.56 76.816 74.96C64.432 84.752 51.952 90.896 44.656 93.776C45.328 93.872 47.248 93.872 48.112 93.872C62.032 93.296 74.32 86 86.608 76.496C96.304 69.008 105.808 58.832 116.656 46.928C127.696 34.832 139.6 23.6 149.968 18.992C151.984 18.032 153.712 17.552 155.536 17.552C156.208 17.648 156.88 17.744 156.784 18.224C156.688 18.512 156.208 18.416 155.536 18.512C153.52 18.704 152.272 19.376 150.448 20.336C141.136 25.328 131.248 38.864 123.376 48.656C112.528 61.904 102.64 71.216 91.216 79.472C76.72 89.84 61.264 95.024 48.496 95.216C46.576 95.216 43.888 95.12 42.064 94.928C31.408 98.768 25.36 99.728 19.792 99.92C9.04 100.4 2.128 95.696 3.952 89.072C4.432 86.96 6.64 85.136 9.328 84.272C10.096 83.984 11.248 83.792 11.344 84.176C11.44 84.368 10.864 84.656 10.288 85.136C9.424 85.904 8.272 87.344 7.888 88.784C6.256 95.12 10.864 98.96 20.176 98.672C25.168 98.48 32.08 96.848 39.088 94.064C32.944 92.336 27.952 87.44 28.24 78.704C28.816 63.536 39.952 49.232 53.968 38.384C58.192 35.216 63.28 32.24 68.08 29.744C68.272 28.976 68.368 28.112 68.752 27.44C74.128 14 89.68 6.41599 107.824 6.41599C128.848 6.41599 147.28 12.08 153.424 13.904C155.824 14.672 159.088 15.824 160.912 16.592C162.256 17.072 163.024 17.744 162.736 18.224ZM107.728 35.6C109.936 28.592 105.808 23.888 98.896 23.408C90.064 22.832 78.64 27.92 69.232 33.488C68.56 39.824 71.44 45.392 77.968 46.832C79.792 47.216 81.328 46.928 81.232 47.408C81.04 48.176 78.544 48.272 76.624 47.792C70 46.16 67.408 40.304 67.6 34.448C63.856 36.752 60.496 39.152 57.808 41.264C42.64 53.072 30.256 66.992 29.872 79.088C29.584 87.536 34.768 91.856 41.008 93.104C52.72 87.824 64.528 80.048 73.648 72.944C89.488 60.656 105.328 43.568 107.728 35.6ZM159.057 45.968C150.801 53.552 143.025 61.808 139.665 65.936C136.593 69.584 134.481 72.368 135.921 73.04C137.361 73.712 142.449 70.16 144.753 68.336C147.825 65.936 151.281 62.864 154.065 60.368C154.353 60.08 154.833 59.696 155.313 60.176C155.697 60.56 155.409 60.944 155.025 61.328C152.049 64.016 147.825 67.568 145.809 69.2C142.065 72.08 138.033 74.96 135.057 74.864C130.449 74.768 129.969 71.024 132.753 66.224C131.505 67.472 130.161 68.528 129.393 69.2C126.033 71.792 121.713 75.056 118.256 74.96C114.704 74.864 113.84 72.272 114.704 69.392C115.472 66.512 117.776 63.152 121.329 59.6C125.073 55.664 131.889 50.192 135.825 47.888C137.265 47.024 141.201 46.544 143.505 46.544C134.961 53.552 126.513 61.808 123.153 65.936C120.081 69.584 118.352 72.272 119.697 72.848C121.233 73.616 125.745 70.544 128.721 68.144C131.793 65.744 136.401 61.232 137.841 59.6C141.681 55.664 148.497 49.232 152.337 47.024C153.681 46.352 157.233 45.776 159.057 45.968ZM182.361 39.056C183.609 39.632 182.169 41.84 177.177 44.624C174.777 45.968 171.321 47.792 169.977 49.232C168.921 50.384 168.633 52.496 168.633 54.128C168.633 58.736 169.113 65.84 160.569 71.504C166.809 68.624 172.761 64.208 177.177 60.368C177.561 60.08 177.849 59.984 178.233 60.368C178.521 60.752 178.233 61.136 177.945 61.424C172.281 66.608 165.273 70.736 161.145 72.56C157.881 74 152.312 75.152 149.145 74.96C146.648 74.768 144.632 73.712 144.728 71.12C144.824 69.584 145.977 67.376 148.088 65.36C148.856 64.592 150.776 62.864 151.928 61.904C154.041 60.08 155.673 59.216 156.825 59.312C160.665 56.048 165.849 51.536 168.249 48.752C170.553 45.968 171.897 44.048 174.201 42.032C177.081 39.44 180.249 38.096 182.361 39.056ZM167.769 50.864C165.177 53.744 161.241 57.2 157.497 60.272C157.209 61.328 155.961 62.864 153.561 64.4C152.409 65.264 149.72 66.416 148.376 67.472C146.84 68.624 146.168 69.776 146.072 70.832C145.977 72.368 147.128 73.136 148.472 73.136C151.64 73.136 155.48 70.736 159.225 66.512C162.489 62.672 166.424 56.144 167.769 50.864ZM189.007 48.464C196.015 41.456 203.695 34.736 211.663 28.88C225.583 18.8 242.863 9.96799 257.551 9.872C276.175 9.68 282.319 19.088 280.783 27.824C280.015 32.24 276.751 34.832 275.023 35.696C274.255 36.08 274.063 35.984 273.967 35.696C273.871 35.312 273.775 35.504 274.543 34.832C275.887 33.68 277.519 31.28 277.999 28.592C279.727 19.376 274.543 11.12 257.359 11.312C243.535 11.408 228.463 21.392 215.023 31.952C209.071 36.656 200.623 44.144 196.303 48.272C197.647 48.272 201.583 48.176 203.695 48.368C203.983 48.368 204.463 48.56 204.175 49.136C203.983 49.424 203.503 49.52 203.119 49.52C201.487 49.52 197.167 49.52 194.863 49.712C193.135 51.44 191.599 52.976 189.679 54.992C179.791 65.264 174.415 71.408 177.007 72.944C178.639 73.904 182.863 71.504 186.031 69.104C188.335 67.376 193.231 63.344 196.303 60.56C196.783 60.272 197.359 59.792 197.647 60.176C198.031 60.752 197.551 61.232 197.071 61.712C193.999 64.4 190.063 67.952 186.319 70.544C182.095 73.616 177.391 76.016 174.031 74.768C170.959 73.712 171.055 69.872 173.263 66.224C175.375 62.864 180.175 57.392 187.759 49.712C186.127 49.808 183.727 50 181.999 50.096C181.423 50.096 181.039 50.096 181.135 49.616C181.231 49.232 181.519 49.136 182.095 48.944C183.247 48.752 186.703 48.56 189.007 48.464Z" fill="#5CA0FF"/>
<path d="M213.884 74V73.168L215.6 72.908C217.784 72.596 218.2 71.868 218.2 68.748V44.256C218.2 41.136 217.784 40.408 215.6 40.096L213.884 39.836V39.004H237.648V45.816H236.608L236.088 43.788C235.62 41.916 234.892 41.084 231.98 41.084H222.152V55.28H231.928C234.06 55.28 235.048 54.812 235.516 53.2L235.88 51.952H236.816V61.104H235.88L235.568 59.648C235.204 57.88 234.424 57.412 232.032 57.412H222.152V68.904C222.152 71.504 222.568 72.7 224.856 73.012L226.26 73.168V74H213.884ZM247.337 74H238.809V73.272L239.693 73.064C241.097 72.7 241.201 71.712 241.201 70.256V54.708C241.201 54.032 241.149 53.564 240.265 52.992L239.225 52.264V51.692L244.581 48.78L245.101 49.092C245.049 50.444 244.841 56.112 244.841 57.776V70.256C244.841 71.712 245.049 72.7 246.453 73.064L247.337 73.272V74ZM245.569 43.268C245.569 44.88 244.321 45.712 243.021 45.712C241.773 45.712 240.525 44.932 240.525 43.268C240.525 41.552 241.773 40.72 243.021 40.72C244.321 40.72 245.569 41.604 245.569 43.268ZM251.307 43.58C251.307 42.644 251.151 42.28 250.371 41.76L249.383 41.084V40.512L254.687 37.652L255.207 37.964C255.155 39.316 254.947 44.984 254.947 46.648V67.188C254.947 71.92 255.103 72.7 256.559 73.064L257.443 73.272V74H248.915V73.272L249.799 73.064C251.255 72.7 251.307 71.4 251.307 66.668V43.58ZM261.412 70.256V54.656C261.412 53.98 261.36 53.512 260.372 52.94L259.332 52.316V51.744L264.532 48.832L265.052 49.144V53.2C268.432 50.236 271.396 49.092 273.58 49.092C276.336 49.092 278.78 51.38 279.768 53.148C282.628 50.964 285.592 49.092 288.868 49.092C292.768 49.092 295.732 52.576 295.732 56.424V70.36C295.732 72.232 296.304 72.492 297.76 72.752L299.84 73.116V74H289.596V73.272L290.428 72.96C291.728 72.44 292.092 72.128 292.092 70.256V58.712C292.092 57.568 291.988 56.528 291.728 55.644C291.052 53.46 289.596 52.16 286.528 52.16C284.5 52.16 282.212 53.2 280.444 54.188V70.36C280.444 72.232 281.016 72.492 282.472 72.752L284.552 73.116V74H274.308V73.272L275.14 72.96C276.44 72.44 276.804 71.92 276.804 70.256V58.712C276.804 55.904 276.232 54.812 275.244 53.876C274.204 52.836 272.592 52.16 271.136 52.16C268.588 52.16 265.416 54.188 265.052 54.5V70.36C265.052 72.232 265.676 72.492 267.132 72.752L269.264 73.116V74H259.02V73.272L259.904 73.012C261.256 72.596 261.412 71.868 261.412 70.256Z" fill="#5CA0FF"/>
<path d="M273 28L274.165 35.689L281 37L274.165 38.311L273 46L271.835 38.311L265 37L271.835 35.689L273 28Z" fill="#5CA0FF"/>
<path d="M83 38L84.1653 45.689L91 47L84.1653 48.311L83 56L81.8347 48.311L75 47L81.8347 45.689L83 38Z" fill="#5CA0FF"/>
</g>
<defs>
<filter id="filter0_d_63_10" x="0.62793" y="4.91602" width="302.712" height="98.984" filterUnits="userSpaceOnUse" color-interpolation-filters="sRGB">
<feFlood flood-opacity="0" result="BackgroundImageFix"/>
<feColorMatrix in="SourceAlpha" type="matrix" values="0 0 0 0 0 0 0 0 0 0 0 0 0 0 0 0 0 0 127 0" result="hardAlpha"/>
<feOffset dx="1" dy="1"/>
<feGaussianBlur stdDeviation="1.25"/>
<feComposite in2="hardAlpha" operator="out"/>
<feColorMatrix type="matrix" values="0 0 0 0 0.782471 0 0 0 0 0.865857 0 0 0 0 1 0 0 0 1 0"/>
<feBlend mode="normal" in2="BackgroundImageFix" result="effect1_dropShadow_63_10"/>
<feBlend mode="normal" in="SourceGraphic" in2="effect1_dropShadow_63_10" result="shape"/>
</filter>
</defs>
</svg>
